<?xml version="1.0" encoding="utf-8"?>
<!-- Generator: Adobe Illustrator 24.3.0, SVG Export Plug-In . SVG Version: 6.00 Build 0)  -->
<svg version="1.0" id="katman_1" xmlns="http://www.w3.org/2000/svg" xmlns:xlink="http://www.w3.org/1999/xlink" x="0px" y="0px"
	 viewBox="0 0 281.5 187.67" style="enable-background:new 0 0 281.5 187.67;" xml:space="preserve">
<style type="text/css">
	.st0{fill:#F0F0F0;}
	.st1{fill:#D80027;}
	.st2{fill:#2E52B2;}
</style>
<path class="st0" d="M281.5,0H0v187.67h281.5V0z"/>
<path class="st1" d="M281.5,23.46H0v23.46h281.5V23.46z"/>
<path class="st1" d="M281.5,70.38H0v23.46h281.5V70.38z"/>
<path class="st1" d="M281.5,117.29H0v23.46h281.5V117.29z"/>
<path class="st1" d="M281.5,164.2H0v23.46h281.5V164.2z"/>
<path class="st2" d="M140.75,0H0v101.05h140.75V0z"/>
<path class="st0" d="M54.87,41.39l-2.27,6.97h-7.33l5.93,4.31l-2.27,6.97l5.93-4.31l5.93,4.31l-2.27-6.97l5.93-4.31h-7.33
	L54.87,41.39z"/>
<path class="st0" d="M57.14,73.53l-2.26-6.97l-2.27,6.97h-7.33l5.93,4.31l-2.27,6.97l5.93-4.31l5.93,4.31l-2.27-6.97l5.93-4.31
	H57.14z"/>
<path class="st0" d="M26.15,73.53l-2.26-6.97l-2.27,6.97h-7.33l5.93,4.31l-2.27,6.97l5.93-4.31l5.93,4.31l-2.27-6.97l5.93-4.31
	H26.15z"/>
<path class="st0" d="M23.89,41.39l-2.27,6.97h-7.33l5.93,4.31l-2.27,6.97l5.93-4.31l5.93,4.31l-2.27-6.97l5.93-4.31h-7.33
	L23.89,41.39z"/>
<path class="st0" d="M54.87,16.23l-2.27,6.97h-7.33l5.93,4.31l-2.27,6.97l5.93-4.31l5.93,4.31l-2.27-6.97l5.93-4.31h-7.33
	L54.87,16.23z"/>
<path class="st0" d="M23.89,16.23l-2.27,6.97h-7.33l5.93,4.31l-2.27,6.97l5.93-4.31l5.93,4.31l-2.27-6.97l5.93-4.31h-7.33
	L23.89,16.23z"/>
<path class="st0" d="M85.86,41.39l-2.27,6.97h-7.33l5.93,4.31l-2.27,6.97l5.93-4.31l5.93,4.31l-2.27-6.97l5.93-4.31h-7.33
	L85.86,41.39z"/>
<path class="st0" d="M88.12,73.53l-2.26-6.97l-2.27,6.97h-7.33l5.93,4.31l-2.27,6.97l5.93-4.31l5.93,4.31l-2.27-6.97l5.93-4.31
	H88.12z"/>
<path class="st0" d="M119.12,73.53l-2.26-6.97l-2.27,6.97h-7.33l5.93,4.31l-2.27,6.97l5.93-4.31l5.93,4.31l-2.27-6.97l5.93-4.31
	H119.12z"/>
<path class="st0" d="M116.85,41.39l-2.27,6.97h-7.33l5.93,4.31l-2.27,6.97l5.93-4.31l5.93,4.31l-2.27-6.97l5.93-4.31h-7.33
	L116.85,41.39z"/>
<path class="st0" d="M85.86,16.23l-2.27,6.97h-7.33l5.93,4.31l-2.27,6.97l5.93-4.31l5.93,4.31l-2.27-6.97l5.93-4.31h-7.33
	L85.86,16.23z"/>
<path class="st0" d="M116.85,16.23l-2.27,6.97h-7.33l5.93,4.31l-2.27,6.97l5.93-4.31l5.93,4.31l-2.27-6.97l5.93-4.31h-7.33
	L116.85,16.23z"/>
</svg>
